[img]http://img194.imageshack.us/img194/6362/flightyd.jpg[/img]

[b][size=200][color=black]PLOT[/color][/size][/b]

[code]An airline pilot saves a flight from crashing, but an 
investigation into the malfunctions reveals something troubling.[/code]

[b][size=200][color=black]IMDB[/color][/size][/b]

[code]http://www.imdb.com/title/tt1907668/[/code]

[b][size=200][color=black]MOVIE INFO[/color][/size][/b]

[code]Flight [2012] BRRip x264 AAC-V3nom

Format                                   : MPEG-4
Format profile                           : Base Media / Version 2
Codec ID                                 : mp42
File size                                : 330 MiB
Duration                                 : 2h 18mn
Overall bit rate mode                    : Variable
Overall bit rate                         : 333 Kbps
Encoded date                             : UTC 2013-01-25 08:26:44
Tagged date                              : UTC 2013-01-25 09:22:24

Video
ID                                       : 1
Format                                   : AVC
Format/Info                              : Advanced Video Codec
Format profile                           : Main@L2.1
Format settings, CABAC                   : Yes
Format settings, ReFrames                : 4 frames
Codec ID                                 : avc1
Codec ID/Info                            : Advanced Video Coding
Duration                                 : 2h 18mn
Bit rate mode                            : Variable
Bit rate                                 : 233 Kbps
Width                                    : 640 pixels
Height                                   : 272 pixels
Display aspect ratio                     : 2.40:1
Frame rate mode                          : Variable
Frame rate                               : 23.976 fps
Minimum frame rate                       : 5.994 fps
Maximum frame rate                       : 23.981 fps
Color space                              : YUV
Chroma subsampling                       : 4:2:0
Bit depth                                : 8 bits
Scan type                                : Progressive
Bits/(Pixel*Frame)                       : 0.056
Stream size                              : 230 MiB (70%)
Writing library                          : x264 core 112

Audio
ID                                       : 2
Format                                   : AAC
Format/Info                              : Advanced Audio Codec
Format profile                           : LC
Codec ID                                 : 40
Duration                                 : 2h 18mn
Bit rate mode                            : Variable
Bit rate                                 : 96.0 Kbps
Maximum bit rate                         : 176 Kbps
Channel(s)                               : 2 channels
Channel positions                        : Front: L R
Sampling rate                            : 48.0 KHz
Compression mode                         : Lossy
Delay relative to video                  : 209ms
Stream size                              : 95.1 MiB (29%)
Language                                 : English
Encoded date                             : UTC 2013-01-25 08:26:44
Tagged date                              : UTC 2013-01-25 09:22:16[/code]

[b][size=200][color=black]SOURCE[/color][/size][/b]

[code]Flight (2012) 720p BrRip x264 - YIFY(Thanks)[/code]

[b][size=200][color=black]SCREENSHOTS[/color][/size][/b]

[img]http://img69.imageshack.us/img69/3900/flight2012brripx264aacv.jpg[/img]

[img]http://kastatic.com/i2/users/133df62bbf28e62494bb17fe11078f1a.gif[/img][img]http://kastatic.com/i2/users/133df62bbf28e62494bb17fe11078f1a.gif[/img]